{
    "asset" : {
        "generator" : "Khronos glTF Blender I/O v3.4.50",
        "version" : "2.0"
    },
    "scene" : 0,
    "scenes" : [
        {
            "extras" : {
                "show_mmd_tabs" : 1,
                "embed_textures" : 0,
                "ui_lang" : 0
            },
            "name" : "Scene",
            "nodes" : [
                0,
                1,
                2,
                3,
                4,
                5
            ]
        }
    ],
    "nodes" : [
        {
            "mesh" : 0,
            "name" : "4_part1-mesh3_0.2_16_16",
            "rotation" : [
                -0.6925297379493713,
                -0.003207589266821742,
                -0.01020809356123209,
                0.7213099598884583
            ],
            "scale" : [
                15.418936729431152,
                15.418936729431152,
                15.418936729431152
            ],
            "translation" : [
                -1.038827657699585,
                1.1066110134124756,
                2.1117217540740967
            ]
        },
        {
            "mesh" : 1,
            "name" : "4_part1-mesh4_0.2_16_16",
            "rotation" : [
                -0.6925297379493713,
                -0.003207589266821742,
                -0.01020809356123209,
                0.7213099598884583
            ],
            "scale" : [
                15.418936729431152,
                15.418936729431152,
                15.418936729431152
            ],
            "translation" : [
                -1.038827657699585,
                1.1066110134124756,
                2.1117217540740967
            ]
        },
        {
            "mesh" : 2,
            "name" : "4_part1-mesh5_0.1_16_16",
            "rotation" : [
                -0.6925297379493713,
                -0.003207589266821742,
                -0.01020809356123209,
                0.7213099598884583
            ],
            "scale" : [
                15.418936729431152,
                15.418936729431152,
                15.418936729431152
            ],
            "translation" : [
                -1.038827657699585,
                1.1066110134124756,
                2.1117217540740967
            ]
        },
        {
            "mesh" : 3,
            "name" : "4_part1-mesh6_0.3_16_16",
            "rotation" : [
                -0.6925297379493713,
                -0.003207589266821742,
                -0.01020809356123209,
                0.7213099598884583
            ],
            "scale" : [
                15.418936729431152,
                15.418936729431152,
                15.418936729431152
            ],
            "translation" : [
                -1.038827657699585,
                1.1066110134124756,
                2.1117217540740967
            ]
        },
        {
            "mesh" : 4,
            "name" : "4_part1-mesh7_0.1_16_16",
            "rotation" : [
                -0.6925297379493713,
                -0.003207589266821742,
                -0.01020809356123209,
                0.7213099598884583
            ],
            "scale" : [
                15.418936729431152,
                15.418936729431152,
                15.418936729431152
            ],
            "translation" : [
                -1.038827657699585,
                1.1066110134124756,
                2.1117217540740967
            ]
        },
        {
            "mesh" : 5,
            "name" : "4_part2-Material123_0.5_0_0",
            "rotation" : [
                -0.6925297379493713,
                -0.003207589266821742,
                -0.01020809356123209,
                0.7213099598884583
            ],
            "scale" : [
                15.418936729431152,
                15.418936729431152,
                15.418936729431152
            ],
            "translation" : [
                -1.038827657699585,
                1.1066110134124756,
                2.1117217540740967
            ]
        }
    ],
    "materials" : [
        {
            "doubleSided" : true,
            "name" : "4_part1-mesh3_0.2_16_16",
            "pbrMetallicRoughness" : {}
        },
        {
            "doubleSided" : true,
            "name" : "4_part1-mesh4_0.2_16_16",
            "pbrMetallicRoughness" : {}
        },
        {
            "doubleSided" : true,
            "name" : "4_part1-mesh5_0.1_16_16",
            "pbrMetallicRoughness" : {}
        },
        {
            "doubleSided" : true,
            "name" : "4_part1-mesh6_0.3_16_16",
            "pbrMetallicRoughness" : {}
        },
        {
            "doubleSided" : true,
            "name" : "4_part1-mesh7_0.1_16_16",
            "pbrMetallicRoughness" : {}
        },
        {
            "doubleSided" : true,
            "name" : "4_part2-Material123_0.5_0_0",
            "pbrMetallicRoughness" : {}
        }
    ],
    "meshes" : [
        {
            "name" : "4_part1-mesh3_0.2_16_16",
            "primitives" : [
                {
                    "attributes" : {
                        "COLOR_0" : 0,
                        "POSITION" : 1,
                        "TEXCOORD_0" : 2,
                        "NORMAL" : 3,
                        "TANGENT" : 4
                    },
                    "indices" : 5,
                    "material" : 0
                }
            ]
        },
        {
            "name" : "4_part1-mesh4_0.2_16_16",
            "primitives" : [
                {
                    "attributes" : {
                        "COLOR_0" : 6,
                        "POSITION" : 7,
                        "TEXCOORD_0" : 8,
                        "NORMAL" : 9,
                        "TANGENT" : 10
                    },
                    "indices" : 11,
                    "material" : 1
                }
            ]
        },
        {
            "name" : "4_part1-mesh5_0.1_16_16",
            "primitives" : [
                {
                    "attributes" : {
                        "COLOR_0" : 12,
                        "POSITION" : 13,
                        "TEXCOORD_0" : 14,
                        "NORMAL" : 15,
                        "TANGENT" : 16
                    },
                    "indices" : 17,
                    "material" : 2
                }
            ]
        },
        {
            "name" : "4_part1-mesh6_0.3_16_16",
            "primitives" : [
                {
                    "attributes" : {
                        "COLOR_0" : 18,
                        "POSITION" : 19,
                        "TEXCOORD_0" : 20,
                        "NORMAL" : 21,
                        "TANGENT" : 22
                    },
                    "indices" : 23,
                    "material" : 3
                }
            ]
        },
        {
            "name" : "4_part1-mesh7_0.1_16_16",
            "primitives" : [
                {
                    "attributes" : {
                        "COLOR_0" : 24,
                        "POSITION" : 25,
                        "TEXCOORD_0" : 26,
                        "NORMAL" : 27,
                        "TANGENT" : 28
                    },
                    "indices" : 29,
                    "material" : 4
                }
            ]
        },
        {
            "name" : "4_part2-Material123_0.5_0_0",
            "primitives" : [
                {
                    "attributes" : {
                        "COLOR_0" : 30,
                        "POSITION" : 31,
                        "TEXCOORD_0" : 32,
                        "NORMAL" : 33,
                        "TANGENT" : 34
                    },
                    "indices" : 35,
                    "material" : 5
                }
            ]
        }
    ],
    "accessors" : [
        {
            "bufferView" : 0,
            "componentType" : 5123,
            "count" : 591,
            "normalized" : true,
            "type" : "VEC4"
        },
        {
            "bufferView" : 1,
            "componentType" : 5126,
            "count" : 591,
            "max" : [
                0.10660430043935776,
                2.0171101093292236,
                0.13155290484428406
            ],
            "min" : [
                -0.10660430043935776,
                1.699092984199524,
                -0.13728110492229462
            ],
            "type" : "VEC3"
        },
        {
            "bufferView" : 2,
            "componentType" : 5126,
            "count" : 591,
            "type" : "VEC2"
        },
        {
            "bufferView" : 3,
            "componentType" : 5126,
            "count" : 591,
            "type" : "VEC3"
        },
        {
            "bufferView" : 4,
            "componentType" : 5126,
            "count" : 591,
            "type" : "VEC4"
        },
        {
            "bufferView" : 5,
            "componentType" : 5123,
            "count" : 2934,
            "type" : "SCALAR"
        },
        {
            "bufferView" : 6,
            "componentType" : 5123,
            "count" : 4043,
            "normalized" : true,
            "type" : "VEC4"
        },
        {
            "bufferView" : 7,
            "componentType" : 5126,
            "count" : 4043,
            "max" : [
                0.9433783888816833,
                1.7447199821472168,
                0.21936219930648804
            ],
            "min" : [
                -0.9433770775794983,
                0.001373186009004712,
                -0.19302619993686676
            ],
            "type" : "VEC3"
        },
        {
            "bufferView" : 8,
            "componentType" : 5126,
            "count" : 4043,
            "type" : "VEC2"
        },
        {
            "bufferView" : 9,
            "componentType" : 5126,
            "count" : 4043,
            "type" : "VEC3"
        },
        {
            "bufferView" : 10,
            "componentType" : 5126,
            "count" : 4043,
            "type" : "VEC4"
        },
        {
            "bufferView" : 11,
            "componentType" : 5123,
            "count" : 19602,
            "type" : "SCALAR"
        },
        {
            "bufferView" : 12,
            "componentType" : 5123,
            "count" : 540,
            "normalized" : true,
            "type" : "VEC4"
        },
        {
            "bufferView" : 13,
            "componentType" : 5126,
            "count" : 540,
            "max" : [
                0.1851699948310852,
                2.038853883743286,
                0.17346739768981934
            ],
            "min" : [
                -0.18665960431098938,
                0.954398512840271,
                -0.1573895961046219
            ],
            "type" : "VEC3"
        },
        {
            "bufferView" : 14,
            "componentType" : 5126,
            "count" : 540,
            "type" : "VEC2"
        },
        {
            "bufferView" : 15,
            "componentType" : 5126,
            "count" : 540,
            "type" : "VEC3"
        },
        {
            "bufferView" : 16,
            "componentType" : 5126,
            "count" : 540,
            "type" : "VEC4"
        },
        {
            "bufferView" : 17,
            "componentType" : 5123,
            "count" : 2448,
            "type" : "SCALAR"
        },
        {
            "bufferView" : 18,
            "componentType" : 5123,
            "count" : 330,
            "normalized" : true,
            "type" : "VEC4"
        },
        {
            "bufferView" : 19,
            "componentType" : 5126,
            "count" : 330,
            "max" : [
                0.03830470144748688,
                1.8318959474563599,
                0.10237559676170349
            ],
            "min" : [
                -0.03426869958639145,
                1.7715270519256592,
                0.035069599747657776
            ],
            "type" : "VEC3"
        },
        {
            "bufferView" : 20,
            "componentType" : 5126,
            "count" : 330,
            "type" : "VEC2"
        },
        {
            "bufferView" : 21,
            "componentType" : 5126,
            "count" : 330,
            "type" : "VEC3"
        },
        {
            "bufferView" : 22,
            "componentType" : 5126,
            "count" : 330,
            "type" : "VEC4"
        },
        {
            "bufferView" : 23,
            "componentType" : 5123,
            "count" : 1326,
            "type" : "SCALAR"
        },
        {
            "bufferView" : 24,
            "componentType" : 5123,
            "count" : 1572,
            "normalized" : true,
            "type" : "VEC4"
        },
        {
            "bufferView" : 25,
            "componentType" : 5126,
            "count" : 1572,
            "max" : [
                0.2457515001296997,
                0.4258407950401306,
                0.24810980260372162
            ],
            "min" : [
                -0.2568860948085785,
                -0.011535562574863434,
                -0.1528169959783554
            ],
            "type" : "VEC3"
        },
        {
            "bufferView" : 26,
            "componentType" : 5126,
            "count" : 1572,
            "type" : "VEC2"
        },
        {
            "bufferView" : 27,
            "componentType" : 5126,
            "count" : 1572,
            "type" : "VEC3"
        },
        {
            "bufferView" : 28,
            "componentType" : 5126,
            "count" : 1572,
            "type" : "VEC4"
        },
        {
            "bufferView" : 29,
            "componentType" : 5123,
            "count" : 5904,
            "type" : "SCALAR"
        },
        {
            "bufferView" : 30,
            "componentType" : 5123,
            "count" : 85,
            "normalized" : true,
            "type" : "VEC4"
        },
        {
            "bufferView" : 31,
            "componentType" : 5126,
            "count" : 85,
            "max" : [
                0.05746703967452049,
                1.892624020576477,
                0.07696226984262466
            ],
            "min" : [
                -0.0541730672121048,
                1.860895037651062,
                0.058197300881147385
            ],
            "type" : "VEC3"
        },
        {
            "bufferView" : 32,
            "componentType" : 5126,
            "count" : 85,
            "type" : "VEC2"
        },
        {
            "bufferView" : 33,
            "componentType" : 5126,
            "count" : 85,
            "type" : "VEC3"
        },
        {
            "bufferView" : 34,
            "componentType" : 5126,
            "count" : 85,
            "type" : "VEC4"
        },
        {
            "bufferView" : 35,
            "componentType" : 5123,
            "count" : 420,
            "type" : "SCALAR"
        }
    ],
    "bufferViews" : [
        {
            "buffer" : 0,
            "byteLength" : 4728,
            "byteOffset" : 0,
            "target" : 34962
        },
        {
            "buffer" : 0,
            "byteLength" : 7092,
            "byteOffset" : 4728,
            "target" : 34962
        },
        {
            "buffer" : 0,
            "byteLength" : 4728,
            "byteOffset" : 11820,
            "target" : 34962
        },
        {
            "buffer" : 0,
            "byteLength" : 7092,
            "byteOffset" : 16548,
            "target" : 34962
        },
        {
            "buffer" : 0,
            "byteLength" : 9456,
            "byteOffset" : 23640,
            "target" : 34962
        },
        {
            "buffer" : 0,
            "byteLength" : 5868,
            "byteOffset" : 33096,
            "target" : 34963
        },
        {
            "buffer" : 0,
            "byteLength" : 32344,
            "byteOffset" : 38964,
            "target" : 34962
        },
        {
            "buffer" : 0,
            "byteLength" : 48516,
            "byteOffset" : 71308,
            "target" : 34962
        },
        {
            "buffer" : 0,
            "byteLength" : 32344,
            "byteOffset" : 119824,
            "target" : 34962
        },
        {
            "buffer" : 0,
            "byteLength" : 48516,
            "byteOffset" : 152168,
            "target" : 34962
        },
        {
            "buffer" : 0,
            "byteLength" : 64688,
            "byteOffset" : 200684,
            "target" : 34962
        },
        {
            "buffer" : 0,
            "byteLength" : 39204,
            "byteOffset" : 265372,
            "target" : 34963
        },
        {
            "buffer" : 0,
            "byteLength" : 4320,
            "byteOffset" : 304576,
            "target" : 34962
        },
        {
            "buffer" : 0,
            "byteLength" : 6480,
            "byteOffset" : 308896,
            "target" : 34962
        },
        {
            "buffer" : 0,
            "byteLength" : 4320,
            "byteOffset" : 315376,
            "target" : 34962
        },
        {
            "buffer" : 0,
            "byteLength" : 6480,
            "byteOffset" : 319696,
            "target" : 34962
        },
        {
            "buffer" : 0,
            "byteLength" : 8640,
            "byteOffset" : 326176,
            "target" : 34962
        },
        {
            "buffer" : 0,
            "byteLength" : 4896,
            "byteOffset" : 334816,
            "target" : 34963
        },
        {
            "buffer" : 0,
            "byteLength" : 2640,
            "byteOffset" : 339712,
            "target" : 34962
        },
        {
            "buffer" : 0,
            "byteLength" : 3960,
            "byteOffset" : 342352,
            "target" : 34962
        },
        {
            "buffer" : 0,
            "byteLength" : 2640,
            "byteOffset" : 346312,
            "target" : 34962
        },
        {
            "buffer" : 0,
            "byteLength" : 3960,
            "byteOffset" : 348952,
            "target" : 34962
        },
        {
            "buffer" : 0,
            "byteLength" : 5280,
            "byteOffset" : 352912,
            "target" : 34962
        },
        {
            "buffer" : 0,
            "byteLength" : 2652,
            "byteOffset" : 358192,
            "target" : 34963
        },
        {
            "buffer" : 0,
            "byteLength" : 12576,
            "byteOffset" : 360844,
            "target" : 34962
        },
        {
            "buffer" : 0,
            "byteLength" : 18864,
            "byteOffset" : 373420,
            "target" : 34962
        },
        {
            "buffer" : 0,
            "byteLength" : 12576,
            "byteOffset" : 392284,
            "target" : 34962
        },
        {
            "buffer" : 0,
            "byteLength" : 18864,
            "byteOffset" : 404860,
            "target" : 34962
        },
        {
            "buffer" : 0,
            "byteLength" : 25152,
            "byteOffset" : 423724,
            "target" : 34962
        },
        {
            "buffer" : 0,
            "byteLength" : 11808,
            "byteOffset" : 448876,
            "target" : 34963
        },
        {
            "buffer" : 0,
            "byteLength" : 680,
            "byteOffset" : 460684,
            "target" : 34962
        },
        {
            "buffer" : 0,
            "byteLength" : 1020,
            "byteOffset" : 461364,
            "target" : 34962
        },
        {
            "buffer" : 0,
            "byteLength" : 680,
            "byteOffset" : 462384,
            "target" : 34962
        },
        {
            "buffer" : 0,
            "byteLength" : 1020,
            "byteOffset" : 463064,
            "target" : 34962
        },
        {
            "buffer" : 0,
            "byteLength" : 1360,
            "byteOffset" : 464084,
            "target" : 34962
        },
        {
            "buffer" : 0,
            "byteLength" : 840,
            "byteOffset" : 465444,
            "target" : 34963
        }
    ],
    "buffers" : [
        {
            "byteLength" : 466284,
            "uri" : "data:application/octet-stream;base64,"
        }
    ]
}
