{
    "asset" : {
        "generator" : "Khronos glTF Blender I/O v3.4.50",
        "version" : "2.0"
    },
    "scene" : 0,
    "scenes" : [
        {
            "name" : "Scene",
            "nodes" : [
                0,
                1,
                2,
                3,
                4,
                5
            ]
        }
    ],
    "nodes" : [
        {
            "mesh" : 0,
            "name" : "4_part1-mesh3_0.2_16_16",
            "scale" : [
                5.821259498596191,
                5.821259498596191,
                5.821259498596191
            ],
            "translation" : [
                -0.03200889378786087,
                -0.05633164197206497,
                0.01834980398416519
            ]
        },
        {
            "mesh" : 1,
            "name" : "4_part1-mesh4_0.2_16_16",
            "scale" : [
                5.821259498596191,
                5.821259498596191,
                5.821259498596191
            ],
            "translation" : [
                -0.03200889378786087,
                -0.05633164197206497,
                0.01834980398416519
            ]
        },
        {
            "mesh" : 2,
            "name" : "4_part1-mesh5_0.1_16_16",
            "scale" : [
                5.821259498596191,
                5.821259498596191,
                5.821259498596191
            ],
            "translation" : [
                -0.03200889378786087,
                -0.05633164197206497,
                0.01834980398416519
            ]
        },
        {
            "mesh" : 3,
            "name" : "4_part1-mesh6_0.3_16_16",
            "scale" : [
                5.821259498596191,
                5.821259498596191,
                5.821259498596191
            ],
            "translation" : [
                -0.03200889378786087,
                -0.05633164197206497,
                0.01834980398416519
            ]
        },
        {
            "mesh" : 4,
            "name" : "4_part1-mesh7_0.1_16_16",
            "scale" : [
                5.821259498596191,
                5.821259498596191,
                5.821259498596191
            ],
            "translation" : [
                -0.03200889378786087,
                -0.05633164197206497,
                0.01834980398416519
            ]
        },
        {
            "mesh" : 5,
            "name" : "4_part2-Material123_0.5_0_0",
            "scale" : [
                5.821259498596191,
                5.821259498596191,
                5.821259498596191
            ],
            "translation" : [
                -0.03200889378786087,
                -0.05633164197206497,
                0.01834980398416519
            ]
        }
    ],
    "materials" : [
        {
            "doubleSided" : true,
            "name" : "4_part1-mesh3_0.2_16_16",
            "pbrMetallicRoughness" : {}
        },
        {
            "doubleSided" : true,
            "name" : "4_part1-mesh4_0.2_16_16",
            "pbrMetallicRoughness" : {}
        },
        {
            "doubleSided" : true,
            "name" : "4_part1-mesh5_0.1_16_16",
            "pbrMetallicRoughness" : {}
        },
        {
            "doubleSided" : true,
            "name" : "4_part1-mesh6_0.3_16_16",
            "pbrMetallicRoughness" : {}
        },
        {
            "doubleSided" : true,
            "name" : "4_part1-mesh7_0.1_16_16",
            "pbrMetallicRoughness" : {}
        },
        {
            "doubleSided" : true,
            "name" : "4_part2-Material123_0.5_0_0",
            "pbrMetallicRoughness" : {}
        }
    ],
    "meshes" : [
        {
            "name" : "4_part1-mesh3_0.2_16_16",
            "primitives" : [
                {
                    "attributes" : {
                        "COLOR_0" : 0,
                        "POSITION" : 1,
                        "TEXCOORD_0" : 2,
                        "NORMAL" : 3
                    },
                    "indices" : 4,
                    "material" : 0
                }
            ]
        },
        {
            "name" : "4_part1-mesh4_0.2_16_16",
            "primitives" : [
                {
                    "attributes" : {
                        "COLOR_0" : 5,
                        "POSITION" : 6,
                        "TEXCOORD_0" : 7,
                        "NORMAL" : 8
                    },
                    "indices" : 9,
                    "material" : 1
                }
            ]
        },
        {
            "name" : "4_part1-mesh5_0.1_16_16",
            "primitives" : [
                {
                    "attributes" : {
                        "COLOR_0" : 10,
                        "POSITION" : 11,
                        "TEXCOORD_0" : 12,
                        "NORMAL" : 13
                    },
                    "indices" : 14,
                    "material" : 2
                }
            ]
        },
        {
            "name" : "4_part1-mesh6_0.3_16_16",
            "primitives" : [
                {
                    "attributes" : {
                        "COLOR_0" : 15,
                        "POSITION" : 16,
                        "TEXCOORD_0" : 17,
                        "NORMAL" : 18
                    },
                    "indices" : 19,
                    "material" : 3
                }
            ]
        },
        {
            "name" : "4_part1-mesh7_0.1_16_16",
            "primitives" : [
                {
                    "attributes" : {
                        "COLOR_0" : 20,
                        "POSITION" : 21,
                        "TEXCOORD_0" : 22,
                        "NORMAL" : 23
                    },
                    "indices" : 24,
                    "material" : 4
                }
            ]
        },
        {
            "name" : "4_part2-Material123_0.5_0_0",
            "primitives" : [
                {
                    "attributes" : {
                        "COLOR_0" : 25,
                        "POSITION" : 26,
                        "TEXCOORD_0" : 27,
                        "NORMAL" : 28
                    },
                    "indices" : 29,
                    "material" : 5
                }
            ]
        }
    ],
    "accessors" : [
        {
            "bufferView" : 0,
            "componentType" : 5123,
            "count" : 565,
            "normalized" : true,
            "type" : "VEC4"
        },
        {
            "bufferView" : 1,
            "componentType" : 5126,
            "count" : 565,
            "max" : [
                0.10660430043935776,
                2.0171101093292236,
                0.13155290484428406
            ],
            "min" : [
                -0.10660430043935776,
                1.699092984199524,
                -0.13728110492229462
            ],
            "type" : "VEC3"
        },
        {
            "bufferView" : 2,
            "componentType" : 5126,
            "count" : 565,
            "type" : "VEC2"
        },
        {
            "bufferView" : 3,
            "componentType" : 5126,
            "count" : 565,
            "type" : "VEC3"
        },
        {
            "bufferView" : 4,
            "componentType" : 5123,
            "count" : 2934,
            "type" : "SCALAR"
        },
        {
            "bufferView" : 5,
            "componentType" : 5123,
            "count" : 3985,
            "normalized" : true,
            "type" : "VEC4"
        },
        {
            "bufferView" : 6,
            "componentType" : 5126,
            "count" : 3985,
            "max" : [
                0.9433783888816833,
                1.7447199821472168,
                0.21936219930648804
            ],
            "min" : [
                -0.9433770775794983,
                0.001373186009004712,
                -0.19302619993686676
            ],
            "type" : "VEC3"
        },
        {
            "bufferView" : 7,
            "componentType" : 5126,
            "count" : 3985,
            "type" : "VEC2"
        },
        {
            "bufferView" : 8,
            "componentType" : 5126,
            "count" : 3985,
            "type" : "VEC3"
        },
        {
            "bufferView" : 9,
            "componentType" : 5123,
            "count" : 19602,
            "type" : "SCALAR"
        },
        {
            "bufferView" : 10,
            "componentType" : 5123,
            "count" : 540,
            "normalized" : true,
            "type" : "VEC4"
        },
        {
            "bufferView" : 11,
            "componentType" : 5126,
            "count" : 540,
            "max" : [
                0.1851699948310852,
                2.038853883743286,
                0.17346739768981934
            ],
            "min" : [
                -0.18665960431098938,
                0.954398512840271,
                -0.1573895961046219
            ],
            "type" : "VEC3"
        },
        {
            "bufferView" : 12,
            "componentType" : 5126,
            "count" : 540,
            "type" : "VEC2"
        },
        {
            "bufferView" : 13,
            "componentType" : 5126,
            "count" : 540,
            "type" : "VEC3"
        },
        {
            "bufferView" : 14,
            "componentType" : 5123,
            "count" : 2448,
            "type" : "SCALAR"
        },
        {
            "bufferView" : 15,
            "componentType" : 5123,
            "count" : 313,
            "normalized" : true,
            "type" : "VEC4"
        },
        {
            "bufferView" : 16,
            "componentType" : 5126,
            "count" : 313,
            "max" : [
                0.03830470144748688,
                1.8318959474563599,
                0.10237559676170349
            ],
            "min" : [
                -0.03426869958639145,
                1.7715270519256592,
                0.035069599747657776
            ],
            "type" : "VEC3"
        },
        {
            "bufferView" : 17,
            "componentType" : 5126,
            "count" : 313,
            "type" : "VEC2"
        },
        {
            "bufferView" : 18,
            "componentType" : 5126,
            "count" : 313,
            "type" : "VEC3"
        },
        {
            "bufferView" : 19,
            "componentType" : 5123,
            "count" : 1326,
            "type" : "SCALAR"
        },
        {
            "bufferView" : 20,
            "componentType" : 5123,
            "count" : 1522,
            "normalized" : true,
            "type" : "VEC4"
        },
        {
            "bufferView" : 21,
            "componentType" : 5126,
            "count" : 1522,
            "max" : [
                0.2457515001296997,
                0.4258407950401306,
                0.24810980260372162
            ],
            "min" : [
                -0.2568860948085785,
                -0.011535562574863434,
                -0.1528169959783554
            ],
            "type" : "VEC3"
        },
        {
            "bufferView" : 22,
            "componentType" : 5126,
            "count" : 1522,
            "type" : "VEC2"
        },
        {
            "bufferView" : 23,
            "componentType" : 5126,
            "count" : 1522,
            "type" : "VEC3"
        },
        {
            "bufferView" : 24,
            "componentType" : 5123,
            "count" : 5904,
            "type" : "SCALAR"
        },
        {
            "bufferView" : 25,
            "componentType" : 5123,
            "count" : 85,
            "normalized" : true,
            "type" : "VEC4"
        },
        {
            "bufferView" : 26,
            "componentType" : 5126,
            "count" : 85,
            "max" : [
                0.05746703967452049,
                1.892624020576477,
                0.07696226984262466
            ],
            "min" : [
                -0.0541730672121048,
                1.860895037651062,
                0.058197300881147385
            ],
            "type" : "VEC3"
        },
        {
            "bufferView" : 27,
            "componentType" : 5126,
            "count" : 85,
            "type" : "VEC2"
        },
        {
            "bufferView" : 28,
            "componentType" : 5126,
            "count" : 85,
            "type" : "VEC3"
        },
        {
            "bufferView" : 29,
            "componentType" : 5123,
            "count" : 420,
            "type" : "SCALAR"
        }
    ],
    "bufferViews" : [
        {
            "buffer" : 0,
            "byteLength" : 4520,
            "byteOffset" : 0,
            "target" : 34962
        },
        {
            "buffer" : 0,
            "byteLength" : 6780,
            "byteOffset" : 4520,
            "target" : 34962
        },
        {
            "buffer" : 0,
            "byteLength" : 4520,
            "byteOffset" : 11300,
            "target" : 34962
        },
        {
            "buffer" : 0,
            "byteLength" : 6780,
            "byteOffset" : 15820,
            "target" : 34962
        },
        {
            "buffer" : 0,
            "byteLength" : 5868,
            "byteOffset" : 22600,
            "target" : 34963
        },
        {
            "buffer" : 0,
            "byteLength" : 31880,
            "byteOffset" : 28468,
            "target" : 34962
        },
        {
            "buffer" : 0,
            "byteLength" : 47820,
            "byteOffset" : 60348,
            "target" : 34962
        },
        {
            "buffer" : 0,
            "byteLength" : 31880,
            "byteOffset" : 108168,
            "target" : 34962
        },
        {
            "buffer" : 0,
            "byteLength" : 47820,
            "byteOffset" : 140048,
            "target" : 34962
        },
        {
            "buffer" : 0,
            "byteLength" : 39204,
            "byteOffset" : 187868,
            "target" : 34963
        },
        {
            "buffer" : 0,
            "byteLength" : 4320,
            "byteOffset" : 227072,
            "target" : 34962
        },
        {
            "buffer" : 0,
            "byteLength" : 6480,
            "byteOffset" : 231392,
            "target" : 34962
        },
        {
            "buffer" : 0,
            "byteLength" : 4320,
            "byteOffset" : 237872,
            "target" : 34962
        },
        {
            "buffer" : 0,
            "byteLength" : 6480,
            "byteOffset" : 242192,
            "target" : 34962
        },
        {
            "buffer" : 0,
            "byteLength" : 4896,
            "byteOffset" : 248672,
            "target" : 34963
        },
        {
            "buffer" : 0,
            "byteLength" : 2504,
            "byteOffset" : 253568,
            "target" : 34962
        },
        {
            "buffer" : 0,
            "byteLength" : 3756,
            "byteOffset" : 256072,
            "target" : 34962
        },
        {
            "buffer" : 0,
            "byteLength" : 2504,
            "byteOffset" : 259828,
            "target" : 34962
        },
        {
            "buffer" : 0,
            "byteLength" : 3756,
            "byteOffset" : 262332,
            "target" : 34962
        },
        {
            "buffer" : 0,
            "byteLength" : 2652,
            "byteOffset" : 266088,
            "target" : 34963
        },
        {
            "buffer" : 0,
            "byteLength" : 12176,
            "byteOffset" : 268740,
            "target" : 34962
        },
        {
            "buffer" : 0,
            "byteLength" : 18264,
            "byteOffset" : 280916,
            "target" : 34962
        },
        {
            "buffer" : 0,
            "byteLength" : 12176,
            "byteOffset" : 299180,
            "target" : 34962
        },
        {
            "buffer" : 0,
            "byteLength" : 18264,
            "byteOffset" : 311356,
            "target" : 34962
        },
        {
            "buffer" : 0,
            "byteLength" : 11808,
            "byteOffset" : 329620,
            "target" : 34963
        },
        {
            "buffer" : 0,
            "byteLength" : 680,
            "byteOffset" : 341428,
            "target" : 34962
        },
        {
            "buffer" : 0,
            "byteLength" : 1020,
            "byteOffset" : 342108,
            "target" : 34962
        },
        {
            "buffer" : 0,
            "byteLength" : 680,
            "byteOffset" : 343128,
            "target" : 34962
        },
        {
            "buffer" : 0,
            "byteLength" : 1020,
            "byteOffset" : 343808,
            "target" : 34962
        },
        {
            "buffer" : 0,
            "byteLength" : 840,
            "byteOffset" : 344828,
            "target" : 34963
        }
    ],
    "buffers" : [
        {
            "byteLength" : 345668,
            "uri" : "data:application/octet-stream;base64,"
        }
    ]
}
